<svg width="140" height="140" viewBox="0 0 140 140" fill="none" xmlns="http://www.w3.org/2000/svg">
<rect width="140" height="140" rx="12" fill="black"/>
<mask id="mask0_2130_6948" style="mask-type:alpha" maskUnits="userSpaceOnUse" x="21" y="21" width="98" height="98">
<path d="M119 70C119 85.1584 112.117 98.7092 101.306 107.697C92.8153 114.756 81.9035 119 70 119C58.0965 119 47.1843 114.756 38.6944 107.697C27.8832 98.7092 21 85.1584 21 70C21 58.4121 25.0224 47.7638 31.7471 39.375C40.7271 28.1728 54.5259 21 70 21C85.4741 21 99.2726 28.1728 108.253 39.375C114.978 47.7638 119 58.4121 119 70Z" fill="white"/>
</mask>
<g mask="url(#mask0_2130_6948)">
<path d="M70.0003 119C81.9038 119 92.8156 114.756 101.306 107.697H38.6947C47.1845 114.756 58.0967 119 70.0003 119Z" fill="white"/>
<path d="M69.9404 21.0593C58.0369 21.0593 47.1251 25.3036 38.6347 32.3623L101.246 32.3623C92.7561 25.3036 81.8439 21.0593 69.9404 21.0593Z" fill="white"/>
<path d="M118.949 86.3345H21V95.8623H118.949V86.3345Z" fill="white"/>
<path d="M69.3 64.3857C69.3 63.8335 69.7477 63.3857 70.3 63.3857H118.28V73.3278H70.3C69.7477 73.3278 69.3 72.8801 69.3 72.3278V64.3857Z" fill="white"/>
<path d="M118.949 44.1401H21V53.6679H118.949V44.1401Z" fill="white"/>
</g>
</svg>
